<svg width="124" height="113" viewBox="0 0 124 113" fill="none" xmlns="http://www.w3.org/2000/svg">
<path d="M37.5971 4.73927L25.8497 27.1255C25.0911 28.571 25.5906 30.3781 26.9732 31.1907L45.3677 42.0032C46.7692 42.827 48.5511 42.3203 49.3482 40.8712L71.8322 0.00146484H45.2957C42.0836 0.00146484 39.1291 1.81956 37.5971 4.73927V4.73927Z" fill="#29A361"/>
<path d="M71.8321 0L49.3488 40.8702C48.5503 42.3191 46.7696 42.827 45.3685 42.0037L40.5674 39.1826C41.7378 39.3775 42.9557 38.8211 43.5756 37.6926L64.3155 0H71.8321Z" fill="#248F55"/>
<path d="M96.4331 21.6757L88.3306 4.99395C86.8441 1.93333 83.8152 0.00146484 80.5034 0.00146484H57.0767L75.0636 31.5599C75.0046 31.5873 74.9454 31.6147 74.8864 31.642C73.755 32.1688 73.8012 33.8473 74.9596 34.3073L90.4914 40.4756C91.2112 40.7614 92.0186 40.3897 92.2949 39.6456L98.2824 23.5215C98.7251 22.3287 97.5626 21.1778 96.4331 21.6757V21.6757Z" fill="#34CB79"/>
<path d="M98.2827 23.5203L92.2936 39.6441C92.0184 40.3905 91.2098 40.7624 90.4907 40.4751L85.7912 38.608L91.3935 23.5203C91.7119 22.6646 91.2033 21.8314 90.4734 21.6128C89.7784 21.4044 89.185 20.9336 88.8602 20.265L81.4414 4.99348C79.9558 1.93386 76.9279 0 73.6147 0H80.504C83.8148 0 86.8427 1.93386 88.3306 4.99348L96.4327 21.6765C97.5636 21.1789 98.7242 22.3278 98.2827 23.5203Z" fill="#2FB86E"/>
<path d="M80.7813 85.9926C80.5632 85.0665 79.4077 84.6696 78.7023 85.3988L66.563 97.9527C66.0786 98.4536 66.0786 99.2655 66.563 99.7661L78.7493 112.368C79.4495 113.093 80.5933 112.706 80.8234 111.795H98.7441C102.043 111.795 105.063 109.878 106.556 106.836L116.781 85.9923H80.7813V85.9926Z" fill="#29A361"/>
<path d="M95.9095 85.9932L101.72 95.0859C103.034 97.1415 103.179 99.7684 102.101 101.966L99.7112 106.836C98.2208 109.878 95.2001 111.796 91.9019 111.796H98.7442C102.042 111.796 105.063 109.878 106.556 106.836L116.781 85.9934H95.9095V85.9932Z" fill="#248F55"/>
<path d="M56.3248 109.399V87.2131C56.3248 85.5457 55.0177 84.1936 53.405 84.1936H5.30908L17.6865 107.693C19.2207 110.606 22.1713 112.419 25.3786 112.419H53.405C55.0174 112.419 56.3248 111.067 56.3248 109.399Z" fill="#29A361"/>
<path d="M25.7067 84.1965L15.0255 102.644L5.30908 84.1965H25.7067Z" fill="#248F55"/>
<path d="M56.324 87.2141V109.401C56.324 111.068 55.0171 112.419 53.4052 112.419H45.7446C47.3566 112.419 48.6635 111.068 48.6635 109.401V87.2141C48.6635 85.5471 47.3566 84.1956 45.7446 84.1956H53.4052C55.0171 84.1953 56.324 85.5471 56.324 87.2141Z" fill="#248F55"/>
<path d="M32.8285 64.59L30.6687 47.781C30.562 46.9505 29.8244 46.367 29.0216 46.4772L12.7051 48.7193C11.4764 48.8881 11.0185 50.4338 11.8601 51.2937L1.56256 66.6429C-0.325492 69.457 -0.517115 73.1316 1.06714 76.1394L12.2729 97.4146L30.4679 65.9842C30.4744 65.9891 30.4807 65.9944 30.4872 65.9993C31.5257 66.8144 33.0001 65.9266 32.8285 64.59Z" fill="#34CB79"/>
<path d="M30.4864 65.9988C30.4814 65.9936 30.4741 65.9886 30.4691 65.9834L12.2734 97.4131L8.53125 90.309L23.341 64.7227L23.7517 64.0129C23.9763 63.6251 24.4152 63.4575 24.8444 63.5437C24.8466 63.5442 24.8487 63.5444 24.8509 63.5449C25.764 63.7132 26.7007 62.9265 26.5603 61.8468L24.6631 47.0745L29.0204 46.477C29.8239 46.3667 30.563 46.9515 30.6696 47.7797L32.8297 64.591C33.0011 65.9269 31.5254 66.8141 30.4864 65.9988V65.9988Z" fill="#2FB86E"/>
<path d="M121.704 65.4875L107.618 44.3803C106.754 43.0855 105.073 42.6939 103.756 43.4801L85.3988 54.4348C83.9419 55.3041 83.4949 57.2636 84.4224 58.715L110.3 99.2041L122.306 74.7311C123.759 71.7688 123.528 68.2215 121.704 65.4875V65.4875Z" fill="#34CB79"/>
<path d="M122.306 74.731L110.298 99.2028L106.271 92.8988L115.184 74.7308C116.637 71.7685 116.406 68.2217 114.581 65.4877L100.994 45.1296L103.756 43.4806C105.073 42.6931 106.755 43.0855 107.618 44.3808L121.704 65.4879C123.529 68.2219 123.759 71.769 122.306 74.731V74.731Z" fill="#2FB86E"/>
</svg>
