<svg width="148" height="32" viewBox="0 0 148 32" fill="none" xmlns="http://www.w3.org/2000/svg">
<path d="M10.671 1.34532L7.33682 7.69909C7.12153 8.10934 7.2633 8.62225 7.65569 8.85288L12.8765 11.9217C13.2743 12.1555 13.78 12.0117 14.0063 11.6004L20.3878 0.000610352H12.8561C11.9444 0.000610352 11.1059 0.516631 10.671 1.34532V1.34532Z" fill="#29A361"/>
<path d="M20.3879 0L14.0065 11.6C13.7799 12.0112 13.2745 12.1554 12.8768 11.9217L11.5142 11.121C11.8464 11.1763 12.192 11.0184 12.368 10.6981L18.2545 0H20.3879Z" fill="#248F55"/>
<path d="M27.37 6.1523L25.0703 1.4176C24.6484 0.548922 23.7888 0.000610352 22.8488 0.000610352H16.1997L21.3049 8.95767C21.2881 8.96544 21.2713 8.97321 21.2546 8.98098C20.9334 9.1305 20.9466 9.60688 21.2753 9.73746L25.6836 11.4882C25.8879 11.5693 26.1171 11.4638 26.1955 11.2526L27.8949 6.67617C28.0206 6.33764 27.6906 6.01098 27.37 6.1523V6.1523Z" fill="#34CB79"/>
<path d="M27.8949 6.67563L26.1951 11.252C26.117 11.4638 25.8875 11.5694 25.6834 11.4878L24.3495 10.9579L25.9396 6.67563C26.03 6.43277 25.8856 6.19628 25.6785 6.13424C25.4812 6.0751 25.3128 5.94148 25.2206 5.75169L23.115 1.41727C22.6933 0.548877 21.8339 0 20.8936 0H22.8489C23.7886 0 24.648 0.548877 25.0703 1.41727L27.3699 6.15233C27.6908 6.01108 28.0202 6.33717 27.8949 6.67563Z" fill="#2FB86E"/>
<path d="M22.9277 24.4068C22.8658 24.1439 22.5378 24.0313 22.3376 24.2383L18.8922 27.8014C18.7547 27.9435 18.7547 28.174 18.8922 28.3161L22.3509 31.8929C22.5497 32.0984 22.8743 31.9887 22.9396 31.7303H28.026C28.9624 31.7303 29.8194 31.1861 30.2431 30.3226L33.1453 24.4067H22.9277V24.4068Z" fill="#29A361"/>
<path d="M27.2215 24.4069L28.8707 26.9876C29.2436 27.571 29.2848 28.3166 28.9788 28.9403L28.3005 30.3226C27.8775 31.1859 27.0201 31.7304 26.084 31.7304H28.026C28.9621 31.7304 29.8195 31.1859 30.2432 30.3226L33.1453 24.4069H27.2215V24.4069Z" fill="#248F55"/>
<path d="M15.9864 31.0501V24.7531C15.9864 24.2799 15.6154 23.8961 15.1576 23.8961H1.50684L5.01986 30.5659C5.4553 31.3926 6.29276 31.9071 7.20306 31.9071H15.1576C15.6153 31.9071 15.9864 31.5235 15.9864 31.0501Z" fill="#29A361"/>
<path d="M7.29619 23.8969L4.26459 29.1327L1.50684 23.8969H7.29619Z" fill="#248F55"/>
<path d="M15.9861 24.7532V31.0504C15.9861 31.5235 15.6152 31.9071 15.1576 31.9071H12.9834C13.4409 31.9071 13.8118 31.5235 13.8118 31.0504V24.7532C13.8118 24.2801 13.4409 23.8965 12.9834 23.8965H15.1576C15.6152 23.8964 15.9861 24.2801 15.9861 24.7532Z" fill="#248F55"/>
<path d="M9.31754 18.332L8.70452 13.5612C8.67425 13.3255 8.4649 13.1599 8.23704 13.1912L3.60601 13.8275C3.25727 13.8754 3.12732 14.3142 3.36618 14.5582L0.443494 18.9147C-0.0923827 19.7134 -0.14677 20.7563 0.30288 21.61L3.48336 27.6485L8.64754 18.7277C8.64938 18.7291 8.65116 18.7306 8.653 18.732C8.94776 18.9634 9.36625 18.7114 9.31754 18.332Z" fill="#34CB79"/>
<path d="M8.6528 18.7321C8.65137 18.7306 8.64932 18.7292 8.64788 18.7277L3.48351 27.6482L2.42139 25.6319L6.62477 18.3699L6.74133 18.1684C6.80508 18.0583 6.92964 18.0108 7.05146 18.0352C7.05207 18.0354 7.05269 18.0354 7.05331 18.0356C7.31246 18.0834 7.57832 17.8601 7.53848 17.5536L7.00001 13.3609L8.2367 13.1913C8.46477 13.16 8.67453 13.326 8.7048 13.561L9.31788 18.3325C9.36653 18.7117 8.9477 18.9635 8.6528 18.7321V18.7321Z" fill="#2FB86E"/>
<path d="M34.5426 18.5869L30.5447 12.5961C30.2994 12.2286 29.8224 12.1175 29.4484 12.3406L24.2384 15.4498C23.8249 15.6966 23.698 16.2527 23.9612 16.6647L31.3059 28.1565L34.7136 21.2104C35.126 20.3696 35.0604 19.3628 34.5426 18.5869V18.5869Z" fill="#34CB79"/>
<path d="M34.7135 21.2106L31.3054 28.1563L30.1623 26.3671L32.6921 21.2105C33.1045 20.3697 33.0391 19.3631 32.521 18.5871L28.6646 12.809L29.4487 12.3409C29.8224 12.1174 30.2996 12.2288 30.5446 12.5964L34.5426 18.5872C35.0606 19.3631 35.126 20.3699 34.7135 21.2106V21.2106Z" fill="#2FB86E"/>
<path d="M51.66 9.98C53.74 9.98 55.3333 10.3533 56.44 11.1C57.5467 11.8333 58.1 12.98 58.1 14.54C58.1 15.5133 57.8733 16.3067 57.42 16.92C56.98 17.52 56.34 17.9933 55.5 18.34C55.78 18.6867 56.0733 19.0867 56.38 19.54C56.6867 19.98 56.9867 20.4467 57.28 20.94C57.5867 21.42 57.88 21.9267 58.16 22.46C58.44 22.98 58.7 23.4933 58.94 24H55.44C55.1867 23.5467 54.9267 23.0867 54.66 22.62C54.4067 22.1533 54.14 21.7 53.86 21.26C53.5933 20.82 53.3267 20.4067 53.06 20.02C52.7933 19.62 52.5267 19.26 52.26 18.94H50.72V24H47.6V10.34C48.28 10.2067 48.98 10.1133 49.7 10.06C50.4333 10.0067 51.0867 9.98 51.66 9.98ZM51.84 12.64C51.6133 12.64 51.4067 12.6467 51.22 12.66C51.0467 12.6733 50.88 12.6867 50.72 12.7V16.46H51.6C52.7733 16.46 53.6133 16.3133 54.12 16.02C54.6267 15.7267 54.88 15.2267 54.88 14.52C54.88 13.84 54.62 13.36 54.1 13.08C53.5933 12.7867 52.84 12.64 51.84 12.64ZM59.732 18.82C59.732 17.8867 59.872 17.0733 60.152 16.38C60.4454 15.6733 60.8254 15.0867 61.292 14.62C61.7587 14.1533 62.292 13.8 62.892 13.56C63.5054 13.32 64.132 13.2 64.772 13.2C66.2654 13.2 67.4454 13.66 68.312 14.58C69.1787 15.4867 69.612 16.8267 69.612 18.6C69.612 18.7733 69.6054 18.9667 69.592 19.18C69.5787 19.38 69.5654 19.56 69.552 19.72H62.792C62.8587 20.3333 63.1454 20.82 63.652 21.18C64.1587 21.54 64.8387 21.72 65.692 21.72C66.2387 21.72 66.772 21.6733 67.292 21.58C67.8254 21.4733 68.2587 21.3467 68.592 21.2L68.992 23.62C68.832 23.7 68.6187 23.78 68.352 23.86C68.0854 23.94 67.7854 24.0067 67.452 24.06C67.132 24.1267 66.7854 24.18 66.412 24.22C66.0387 24.26 65.6654 24.28 65.292 24.28C64.3454 24.28 63.5187 24.14 62.812 23.86C62.1187 23.58 61.5387 23.2 61.072 22.72C60.6187 22.2267 60.2787 21.6467 60.052 20.98C59.8387 20.3133 59.732 19.5933 59.732 18.82ZM66.732 17.68C66.7187 17.4267 66.672 17.18 66.592 16.94C66.5254 16.7 66.412 16.4867 66.252 16.3C66.1054 16.1133 65.912 15.96 65.672 15.84C65.4454 15.72 65.1587 15.66 64.812 15.66C64.4787 15.66 64.192 15.72 63.952 15.84C63.712 15.9467 63.512 16.0933 63.352 16.28C63.192 16.4667 63.0654 16.6867 62.972 16.94C62.892 17.18 62.832 17.4267 62.792 17.68H66.732ZM80.8917 23.64C80.3851 23.7867 79.7317 23.92 78.9317 24.04C78.1317 24.1733 77.2917 24.24 76.4117 24.24C75.5184 24.24 74.7717 24.12 74.1717 23.88C73.5851 23.64 73.1184 23.3067 72.7717 22.88C72.4251 22.44 72.1784 21.92 72.0317 21.32C71.8851 20.72 71.8117 20.06 71.8117 19.34V13.48H74.7917V18.98C74.7917 19.94 74.9184 20.6333 75.1717 21.06C75.4251 21.4867 75.8984 21.7 76.5917 21.7C76.8051 21.7 77.0317 21.6933 77.2717 21.68C77.5117 21.6533 77.7251 21.6267 77.9117 21.6V13.48H80.8917V23.64ZM83.5891 10.86L86.5691 10.38V13.48H90.1491V15.96H86.5691V19.66C86.5691 20.2867 86.6757 20.7867 86.8891 21.16C87.1157 21.5333 87.5624 21.72 88.2291 21.72C88.5491 21.72 88.8757 21.6933 89.2091 21.64C89.5557 21.5733 89.8691 21.4867 90.1491 21.38L90.5691 23.7C90.2091 23.8467 89.8091 23.9733 89.3691 24.08C88.9291 24.1867 88.3891 24.24 87.7491 24.24C86.9357 24.24 86.2624 24.1333 85.7291 23.92C85.1957 23.6933 84.7691 23.3867 84.4491 23C84.1291 22.6 83.9024 22.12 83.7691 21.56C83.6491 21 83.5891 20.38 83.5891 19.7V10.86ZM95.5558 24H92.5758V13.48H95.5558V24ZM95.8358 10.44C95.8358 10.9867 95.6558 11.42 95.2958 11.74C94.9491 12.0467 94.5358 12.2 94.0558 12.2C93.5758 12.2 93.1558 12.0467 92.7958 11.74C92.4491 11.42 92.2758 10.9867 92.2758 10.44C92.2758 9.89333 92.4491 9.46667 92.7958 9.16C93.1558 8.84 93.5758 8.68 94.0558 8.68C94.5358 8.68 94.9491 8.84 95.2958 9.16C95.6558 9.46667 95.8358 9.89333 95.8358 10.44ZM102.557 24.2C101.69 24.1867 100.984 24.0933 100.437 23.92C99.9037 23.7467 99.477 23.5067 99.157 23.2C98.8504 22.88 98.637 22.5 98.517 22.06C98.4104 21.6067 98.357 21.1 98.357 20.54V8.96L101.337 8.48V19.94C101.337 20.2067 101.357 20.4467 101.397 20.66C101.437 20.8733 101.51 21.0533 101.617 21.2C101.737 21.3467 101.904 21.4667 102.117 21.56C102.33 21.6533 102.617 21.7133 102.977 21.74L102.557 24.2ZM107.665 24H104.685V13.48H107.665V24ZM107.945 10.44C107.945 10.9867 107.765 11.42 107.405 11.74C107.058 12.0467 106.645 12.2 106.165 12.2C105.685 12.2 105.265 12.0467 104.905 11.74C104.558 11.42 104.385 10.9867 104.385 10.44C104.385 9.89333 104.558 9.46667 104.905 9.16C105.265 8.84 105.685 8.68 106.165 8.68C106.645 8.68 107.058 8.84 107.405 9.16C107.765 9.46667 107.945 9.89333 107.945 10.44ZM118.366 15.48C118.126 15.7467 117.8 16.1067 117.386 16.56C116.986 17.0133 116.553 17.5133 116.086 18.06C115.62 18.6067 115.146 19.18 114.666 19.78C114.2 20.38 113.773 20.96 113.386 21.52H118.466V24H109.766V22.24C110.046 21.76 110.38 21.2467 110.766 20.7C111.166 20.14 111.58 19.58 112.006 19.02C112.446 18.46 112.88 17.92 113.306 17.4C113.733 16.8667 114.126 16.3867 114.486 15.96H110.006V13.48H118.366V15.48ZM124.193 21.92C124.487 21.92 124.767 21.9133 125.033 21.9C125.3 21.8867 125.513 21.8667 125.673 21.84V19.58C125.553 19.5533 125.373 19.5267 125.133 19.5C124.893 19.4733 124.673 19.46 124.473 19.46C124.193 19.46 123.927 19.48 123.673 19.52C123.433 19.5467 123.22 19.6067 123.033 19.7C122.847 19.7933 122.7 19.92 122.593 20.08C122.487 20.24 122.433 20.44 122.433 20.68C122.433 21.1467 122.587 21.4733 122.893 21.66C123.213 21.8333 123.647 21.92 124.193 21.92ZM123.953 13.2C124.833 13.2 125.567 13.3 126.153 13.5C126.74 13.7 127.207 13.9867 127.553 14.36C127.913 14.7333 128.167 15.1867 128.313 15.72C128.46 16.2533 128.533 16.8467 128.533 17.5V23.7C128.107 23.7933 127.513 23.9 126.753 24.02C125.993 24.1533 125.073 24.22 123.993 24.22C123.313 24.22 122.693 24.16 122.133 24.04C121.587 23.92 121.113 23.7267 120.713 23.46C120.313 23.18 120.007 22.82 119.793 22.38C119.58 21.94 119.473 21.4 119.473 20.76C119.473 20.1467 119.593 19.6267 119.833 19.2C120.087 18.7733 120.42 18.4333 120.833 18.18C121.247 17.9267 121.72 17.7467 122.253 17.64C122.787 17.52 123.34 17.46 123.913 17.46C124.3 17.46 124.64 17.48 124.933 17.52C125.24 17.5467 125.487 17.5867 125.673 17.64V17.36C125.673 16.8533 125.52 16.4467 125.213 16.14C124.907 15.8333 124.373 15.68 123.613 15.68C123.107 15.68 122.607 15.72 122.113 15.8C121.62 15.8667 121.193 15.9667 120.833 16.1L120.453 13.7C120.627 13.6467 120.84 13.5933 121.093 13.54C121.36 13.4733 121.647 13.42 121.953 13.38C122.26 13.3267 122.58 13.2867 122.913 13.26C123.26 13.22 123.607 13.2 123.953 13.2ZM130.808 16.78H134.148V13.08H136.868V16.78H140.208V19.28H136.868V22.98H134.148V19.28H130.808V16.78Z" fill="#322153"/>
</svg>
