<svg width="277" height="302" viewBox="0 0 277 302" fill="none" xmlns="http://www.w3.org/2000/svg">
<path d="M134.661 274.638C60.2901 274.638 0.000337447 280.72 0.000336823 288.222C0.000336199 295.724 60.2901 301.806 134.661 301.806C209.032 301.806 269.322 295.724 269.322 288.222C269.322 280.72 209.032 274.638 134.661 274.638Z" fill="#F0F0F5"/>
<path d="M256.554 235.549C256.554 235.549 237.448 290.027 235.401 290.027C233.354 290.027 192.414 302.965 228.578 286.622C228.578 286.622 232.672 227.377 238.813 224.653C244.954 221.93 256.554 235.549 256.554 235.549Z" fill="#965450"/>
<path d="M242.225 274.773C248.434 258.634 256.554 235.549 256.554 235.549C256.554 235.549 244.954 221.93 238.813 224.653C234.855 226.424 231.717 251.892 230.011 269.598C234.105 271.232 238.131 273.003 242.225 274.773Z" fill="#76413B"/>
<path d="M222.64 289.55C222.64 289.55 221.071 293.16 236.082 289.346L235.4 291.389C235.4 291.389 193.095 301.331 222.64 289.55Z" fill="#051F38"/>
<path d="M244.954 212.464C244.954 212.464 274.499 262.107 273.202 263.673C271.906 265.24 255.53 304.872 266.174 266.67C266.174 266.67 223.323 225.471 225.166 219.001C227.076 212.6 244.954 212.464 244.954 212.464Z" fill="#965450"/>
<path d="M264.673 273.071C264.673 273.071 266.447 276.612 273.134 262.652L274.294 264.49C274.226 264.49 254.711 303.306 264.673 273.071Z" fill="#051F38"/>
<path d="M262.148 242.018C254.233 228.058 244.953 212.464 244.953 212.464C244.953 212.464 227.075 212.6 225.165 219.001C223.937 223.155 241.541 241.95 254.028 254.616C254.096 254.684 258.941 249.305 262.148 242.018Z" fill="#76413B"/>
<path d="M263.717 137.83C263.717 137.83 245.634 117.741 235.058 130.339C224.482 142.937 208.106 184.476 210.494 201.501C211.927 211.511 221.548 222.202 229.258 229.353L222.776 265.853C222.776 265.853 249.387 273.003 247.682 273.003C246.658 273.003 273.952 199.798 276.681 176.645C279.41 153.492 263.717 137.83 263.717 137.83Z" fill="#8257E6"/>
<path opacity="0.2" d="M249.866 142.324C254.915 142.256 260.442 141.575 265.287 139.6C264.332 138.443 263.718 137.83 263.718 137.83C263.718 137.83 245.636 117.741 235.059 130.339C233.422 132.314 231.648 134.901 229.874 138.034C235.81 141.303 243.316 142.46 249.866 142.324Z" fill="#352C38"/>
<path opacity="0.2" d="M222.777 152.061C215.272 169.154 208.926 190.4 210.495 201.432C211.86 211.374 221.413 221.997 229.123 229.147C231.853 210.625 236.834 184.884 239.836 170.039C232.398 165.817 226.257 159.756 222.777 152.061Z" fill="#352C38"/>
<path d="M211.519 97.6528L200.602 118.763C200.602 118.763 181.496 108.208 178.767 108.208C176.038 108.208 163.073 108.548 169.214 111.272C169.214 111.272 166.485 112.975 169.555 113.656C169.555 113.656 166.826 116.039 170.238 116.38L178.085 116.039C178.085 116.039 193.778 130.34 201.625 132.382C209.472 134.425 222.096 107.867 222.096 107.867L211.519 97.6528Z" fill="#965450"/>
<path d="M213.292 112.77C214.998 113.383 216.772 113.996 218.546 114.609C220.73 110.795 222.095 107.799 222.095 107.799L211.518 97.5842L205.514 109.161C207.902 110.659 210.563 111.817 213.292 112.77Z" fill="#76413B"/>
<path d="M225.165 87.4374C225.165 87.4374 214.93 85.735 211.177 91.1827C207.425 96.6305 205.719 105.483 205.719 105.483L220.389 112.633L225.165 87.4374Z" fill="#34CB79"/>
<path opacity="0.1" d="M219.502 106.709C215.75 103.781 211.451 100.104 208.653 95.6772C206.606 100.444 205.651 105.415 205.651 105.415L220.321 112.565L221.208 107.935C220.662 107.594 220.048 107.186 219.502 106.709Z" fill="#161826"/>
<path d="M153.385 105.687C153.794 106.777 153.18 108.003 152.088 108.411L144.037 111.339C142.945 111.748 141.717 111.135 141.307 110.046L138.1 101.125C137.691 100.035 138.305 98.8096 139.397 98.401L147.448 95.4728C148.54 95.0642 149.768 95.6771 150.178 96.7666L153.385 105.687Z" fill="#23173B"/>
<path d="M159.866 99.0143L134.62 108.071C130.184 109.637 127.933 114.54 129.502 118.967L137.281 140.554C138.85 144.98 143.763 147.227 148.198 145.661L173.445 136.604C177.88 135.038 180.132 130.135 178.562 125.708L170.784 104.122C169.146 99.6953 164.301 97.38 159.866 99.0143ZM176.106 127.683C176.72 129.454 175.833 131.429 174.059 132.042L163.21 102.079C164.984 101.466 166.963 102.351 167.577 104.122L176.106 127.683Z" fill="#322153"/>
<path d="M151.746 96.6304C152.087 97.5838 151.609 98.6734 150.654 99.0139L139.191 103.168C138.235 103.508 137.144 103.032 136.802 102.078L135.847 99.4224C135.506 98.4691 135.984 97.3795 136.939 97.039L148.402 92.8851C149.358 92.5446 150.449 93.0213 150.79 93.9746L151.746 96.6304Z" fill="#8257E6"/>
<path d="M167.849 109.569C167.849 109.569 172.148 108.071 172.898 108.956C173.581 109.773 169.282 110.999 169.487 111.067C169.623 111.135 174.127 110.114 174.536 111.067C174.945 112.02 169.76 113.723 169.76 113.723C169.76 113.723 174.673 112.361 175.014 113.382C175.355 114.404 169.896 115.902 169.896 115.902L169.623 113.655L169.282 111.067L167.849 109.569Z" fill="#965450"/>
<path d="M173.921 108.411C173.921 108.411 170.578 106.164 170.578 105.415C170.51 104.598 179.448 108.343 179.448 108.343L173.921 108.411Z" fill="#965450"/>
<path d="M239.836 85.735C239.154 86.9608 242.497 58.428 242.497 58.428L227.008 68.8469C227.008 68.8469 228.373 87.097 226.667 87.1651C225.984 87.1651 223.323 88.1865 220.389 89.2761C221.072 92.681 222.436 93.43 223.596 96.6987C232.262 96.6306 241.678 96.4263 247 88.527C243.93 87.5056 240.723 84.0326 239.836 85.735Z" fill="#76413B"/>
<path d="M225.165 87.4381L224.483 85.0547L241.542 81.3093L242.224 85.3952C242.224 85.3952 262.694 92.2049 265.424 107.527C268.153 122.849 266.788 132.723 263.718 137.83C263.718 137.83 239.836 141.235 229.601 136.128C219.366 131.02 208.789 92.8859 214.248 89.481C219.707 86.0761 225.165 87.4381 225.165 87.4381Z" fill="#34CB79"/>
<path opacity="0.1" d="M247.478 129.862C239.29 129.385 229.26 128.432 222.436 123.393C221.14 122.439 219.98 121.418 218.888 120.26C221.959 127.819 225.78 134.22 229.601 136.127C239.836 141.234 263.718 137.829 263.718 137.829C265.083 135.582 266.106 132.382 266.584 128.16C260.443 129.998 254.029 130.271 247.478 129.862Z" fill="#161826"/>
<path d="M246.658 118.081L264.057 116.719C264.057 116.719 259.622 147.363 254.505 157.918C249.387 168.473 225.846 210.013 235.058 186.86C235.058 186.86 223.117 204.906 233.352 186.519C233.352 186.519 222.093 201.16 231.987 185.498C231.987 185.498 220.388 198.777 232.67 180.05C232.67 180.05 223.458 184.476 233.693 176.986L243.587 151.109L246.658 118.081Z" fill="#965450"/>
<path d="M263.648 119.171C263.921 117.604 264.057 116.651 264.057 116.651L246.657 118.013L246.521 119.784C252.184 119.784 257.916 119.511 263.648 119.171Z" fill="#76413B"/>
<path d="M228.44 40.1096C228.44 40.1096 237.105 35.0704 249.797 43.3782C258.19 48.8941 257.78 66.5313 239.63 78.1079C218.068 91.8636 228.44 40.1096 228.44 40.1096Z" fill="#051F38"/>
<path d="M240.45 49.5068C240.45 49.5068 230.693 41.948 222.368 45.6253C211.86 50.3921 212.952 61.492 212.747 70.9575C212.474 83.5555 222.436 85.9389 225.439 86.0751C229.874 86.3475 247.956 85.2579 240.45 49.5068Z" fill="#965450"/>
<path d="M241.406 61.2873C241.406 61.2873 241.815 59.3805 245.09 60.8787C249.252 62.8535 247.001 72.7957 242.361 72.5233C237.653 72.319 241.406 61.2873 241.406 61.2873Z" fill="#965450"/>
<path d="M241.405 61.2881C241.405 61.2881 241.951 68.0979 240.381 68.166C238.744 68.2341 237.038 55.8403 241.541 55.8403C246.045 55.9765 241.405 61.2881 241.405 61.2881Z" fill="#051F38"/>
<path d="M241.406 61.2878C241.406 61.2878 238.062 46.1702 218.206 48.6898C218.206 48.6898 221.072 43.0378 227.349 40.382C235.879 36.7728 248.638 51.2775 245.09 60.8793C245.09 60.8793 243.453 61.0836 241.406 61.2878Z" fill="#34CB79"/>
<path d="M249.798 47.328C249.798 47.328 248.706 29.2822 253.073 29.2822C257.44 29.2822 252.732 44.4679 252.732 44.4679C252.732 44.4679 256.348 22.7449 266.856 26.0135C277.364 29.2822 259.214 44.4679 259.214 44.4679C259.214 44.4679 267.538 36.841 270.472 39.4287C273.338 41.9483 258.532 47.0556 258.532 47.0556C258.532 47.0556 269.79 43.7869 271.223 49.2347C272.656 54.6144 249.456 53.8654 249.798 47.328Z" fill="#051F38"/>
<path d="M213.293 57.8149C213.293 57.8149 213.293 57.6787 213.429 57.4064C213.566 57.134 213.702 56.7935 214.044 56.453C214.385 56.1125 214.794 55.7039 215.34 55.4315C215.476 55.3634 215.613 55.2953 215.818 55.2272C215.954 55.1591 216.159 55.091 216.295 55.091C216.5 55.091 216.636 55.0229 216.841 55.0229H217.387C217.728 55.0229 218.069 55.1591 218.411 55.2953C218.752 55.4315 219.025 55.5677 219.298 55.772C219.57 55.9763 219.775 56.1806 219.98 56.3849C220.185 56.5892 220.321 56.7935 220.389 56.9978C220.458 57.0659 220.526 57.2021 220.526 57.2702C220.594 57.3383 220.594 57.4745 220.662 57.5425C220.73 57.7468 220.799 57.883 220.799 58.0192C220.867 58.2916 220.867 58.4278 220.867 58.4278C220.867 58.4278 220.73 58.3597 220.458 58.2916C220.321 58.2235 220.185 58.1554 220.048 58.0873C219.912 58.0192 219.707 57.9511 219.502 57.8149C219.298 57.7468 219.161 57.6106 218.956 57.5425C218.752 57.4745 218.547 57.4064 218.342 57.3383C218.138 57.2702 217.933 57.2021 217.728 57.134C217.523 57.134 217.319 57.0659 217.114 57.0659H216.841C216.773 57.0659 216.636 57.0659 216.5 57.0659C216.295 57.0659 216.091 57.134 215.886 57.134C215.681 57.2021 215.476 57.2021 215.272 57.2702C215.067 57.3383 214.862 57.3383 214.658 57.4064C214.248 57.5426 213.907 57.6106 213.702 57.6787C213.498 57.8149 213.293 57.8149 213.293 57.8149Z" fill="#051F38"/>
<path d="M218.547 76.5417C218.547 76.5417 229.738 76.8822 230.488 76.746C231.171 76.6098 224.211 82.0576 218.547 76.5417Z" fill="white"/>
<path d="M219.297 64.08C219.297 64.08 219.297 64.2161 219.229 64.4885C219.16 64.7609 219.092 65.1014 218.956 65.5781C218.887 65.7824 218.819 66.0548 218.683 66.2591C218.614 66.3953 218.546 66.5315 218.478 66.5996C218.41 66.7358 218.273 66.8719 218.205 66.94C218 67.1443 217.796 67.4167 217.454 67.5529C217.386 67.621 217.318 67.621 217.182 67.6891L216.977 67.7572C216.84 67.8253 216.636 67.8253 216.431 67.8253C216.09 67.8253 215.68 67.7572 215.407 67.4848C215.134 67.2805 214.93 67.0081 214.793 66.6677C214.657 66.3953 214.589 66.1229 214.52 65.8505C214.452 65.5781 214.452 65.3057 214.452 65.1014C214.452 64.6247 214.452 64.2842 214.52 64.0119C214.589 63.7395 214.657 63.6033 214.657 63.6033C214.657 63.6033 214.657 64.2162 214.862 65.1014C214.93 65.51 215.066 66.0548 215.339 66.4634C215.476 66.6677 215.612 66.8719 215.817 67.0081C216.022 67.1443 216.226 67.2124 216.431 67.2124C216.567 67.2124 216.636 67.2124 216.772 67.1443L216.977 67.0762C216.977 67.0762 217.045 67.0081 217.113 67.0081C217.318 66.94 217.523 66.7358 217.727 66.5996C217.932 66.3953 218.069 66.191 218.205 65.9867C218.341 65.7824 218.478 65.5781 218.546 65.3738C218.751 64.9652 218.887 64.6247 219.024 64.4204C219.229 64.2162 219.297 64.08 219.297 64.08Z" fill="#1F2733"/>
<path d="M230.556 64.9652C230.556 64.9652 230.556 65.1014 230.487 65.3738C230.419 65.6462 230.351 65.9867 230.214 66.4633C230.146 66.6676 230.078 66.94 229.941 67.1443C229.873 67.2805 229.805 67.4167 229.737 67.4848C229.669 67.621 229.532 67.7572 229.464 67.8253C229.259 68.0296 229.054 68.302 228.713 68.4382C228.645 68.5063 228.577 68.5063 228.44 68.5744L228.236 68.6425C228.099 68.7106 227.894 68.7106 227.69 68.7106C227.349 68.7106 226.939 68.6425 226.666 68.3701C226.393 68.1658 226.189 67.8934 226.052 67.5529C225.916 67.2805 225.847 67.0081 225.779 66.7357C225.711 66.4633 225.711 66.191 225.711 65.9867C225.711 65.51 225.711 65.1695 225.779 64.8971C225.847 64.6247 225.916 64.4885 225.916 64.4885C225.916 64.4885 225.916 65.1014 226.12 65.9867C226.189 66.3953 226.325 66.94 226.598 67.3486C226.734 67.5529 226.871 67.7572 227.076 67.8934C227.28 68.0296 227.485 68.0977 227.69 68.0977C227.826 68.0977 227.894 68.0977 228.031 68.0296L228.236 67.9615C228.236 67.9615 228.304 67.8934 228.372 67.8934C228.577 67.8253 228.781 67.621 228.986 67.4848C229.191 67.2805 229.327 67.0762 229.464 66.8719C229.6 66.6676 229.737 66.4633 229.805 66.2591C230.01 65.8505 230.146 65.51 230.283 65.3057C230.487 65.1014 230.556 64.9652 230.556 64.9652Z" fill="#1F2733"/>
<path d="M242.975 70.6176C243.18 70.3452 243.316 70.1409 243.452 69.8685C243.589 69.5961 243.657 69.3237 243.725 69.0513C243.725 68.9151 243.725 68.7789 243.725 68.6427C243.725 68.5746 243.657 68.5066 243.657 68.5066C243.657 68.4385 243.589 68.3704 243.521 68.3704C243.452 68.3023 243.452 68.3023 243.384 68.2342L243.248 68.098C243.18 68.0299 243.111 68.0299 243.043 68.0299L242.838 67.9618L242.702 67.8937V67.7575C242.497 67.0084 242.429 66.3274 242.361 65.5784C242.293 65.2379 242.293 64.8293 242.361 64.4888C242.361 64.0802 242.429 63.7397 242.565 63.3311C242.634 63.1269 242.77 62.9226 242.975 62.7864C243.18 62.6502 243.452 62.514 243.657 62.5821C243.93 62.5821 244.067 62.6502 244.271 62.7183C244.476 62.7864 244.681 62.8545 244.817 62.9907C244.954 63.1269 245.158 63.2631 245.227 63.3992C245.363 63.5354 245.431 63.7397 245.5 63.8759C245.636 64.2164 245.704 64.625 245.636 64.9655C245.568 64.625 245.5 64.2845 245.295 63.944C245.227 63.8078 245.09 63.6716 244.954 63.5354C244.817 63.3992 244.681 63.3311 244.544 63.2631C244.408 63.195 244.271 63.1269 244.067 63.1269C243.93 63.1269 243.725 63.0588 243.589 63.0588C243.316 63.0588 243.18 63.2631 243.111 63.5354C242.907 64.1483 242.975 64.8293 242.975 65.5103C243.043 66.1912 243.111 66.9403 243.248 67.6213L243.111 67.417L243.316 67.5532C243.384 67.6213 243.452 67.6213 243.521 67.6894L243.725 67.8256C243.794 67.8937 243.862 67.9618 243.93 68.0299C243.998 68.098 244.067 68.1661 244.067 68.3023C244.135 68.3704 244.135 68.5065 244.135 68.5746C244.203 68.7789 244.135 68.9151 244.135 69.1194C244.067 69.4599 243.862 69.7323 243.657 70.0047C243.452 70.209 243.18 70.4814 242.975 70.6176Z" fill="#76413B"/>
<path d="M220.32 73.4773C219.979 73.5454 219.706 73.5454 219.433 73.5454C219.16 73.5454 218.887 73.4773 218.683 73.4092C218.41 73.3411 218.205 73.2049 218 73.1368C217.864 73.0687 217.796 73.0006 217.659 72.9325C217.523 72.8644 217.455 72.7963 217.318 72.7282L216.909 72.3878L216.977 72.1154C217.659 70.1405 218.342 68.2338 219.024 66.3271C219.706 64.4204 220.457 62.4455 221.207 60.5388C220.73 62.5136 220.184 64.5566 219.706 66.5314C219.16 68.5062 218.615 70.481 218.069 72.4559L217.796 71.843C217.932 71.843 218.069 71.9111 218.205 71.9111C218.342 71.9111 218.478 71.9792 218.546 72.0473C218.751 72.1154 219.024 72.2516 219.229 72.3878C219.433 72.524 219.638 72.7282 219.843 72.9325C219.979 73.0006 220.184 73.2049 220.32 73.4773Z" fill="#76413B"/>
<path d="M224.346 56.9981C224.346 56.9981 224.414 56.7938 224.619 56.5896C224.756 56.4534 224.824 56.3172 225.029 56.1129C225.233 55.9767 225.37 55.7724 225.643 55.6362C225.847 55.5 226.12 55.2957 226.461 55.1595C226.734 55.0233 227.076 54.8871 227.417 54.7509C227.758 54.6828 228.167 54.5466 228.577 54.5466C228.781 54.5466 228.986 54.5466 229.191 54.5466L229.805 54.6147C230.214 54.6147 230.624 54.819 230.965 54.8871C231.306 55.0233 231.647 55.2276 231.988 55.3638C232.33 55.5681 232.603 55.7724 232.807 55.9767C233.08 56.181 233.285 56.4534 233.421 56.6576C233.626 56.8619 233.762 57.0662 233.899 57.2705C234.035 57.4748 234.104 57.6791 234.172 57.8153C234.308 58.0877 234.377 58.292 234.377 58.292C234.377 58.292 234.172 58.2239 233.899 58.0877C233.762 58.0196 233.558 57.9515 233.353 57.8153C233.148 57.6791 232.944 57.611 232.671 57.5429C232.466 57.4748 232.193 57.3386 231.92 57.2024C231.647 57.1343 231.374 56.9981 231.101 56.93C230.828 56.8619 230.555 56.7938 230.283 56.7257C230.01 56.7257 229.737 56.5896 229.396 56.5896L228.986 56.5215H228.577C228.304 56.5215 227.963 56.5215 227.69 56.5215C227.417 56.5215 227.144 56.5215 226.871 56.5896C226.598 56.5896 226.325 56.6576 226.052 56.6576C225.574 56.7257 225.097 56.7938 224.824 56.8619C224.551 56.9981 224.346 56.9981 224.346 56.9981Z" fill="#051F38"/>
<path d="M214.93 289.891C214.93 292.342 212.952 294.385 210.495 294.453C208.039 294.453 205.992 292.478 205.923 290.027L205.719 275.59C205.719 273.139 207.698 271.096 210.154 271.028C212.61 271.028 214.657 273.002 214.726 275.454L214.93 289.891Z" fill="#091E1D"/>
<path d="M152.087 290.64C152.087 293.091 150.108 295.134 147.652 295.202C145.195 295.202 143.148 293.228 143.08 290.776L142.875 276.339C142.875 273.888 144.854 271.845 147.311 271.777C149.767 271.777 151.814 273.752 151.882 276.203L152.087 290.64Z" fill="#091E1D"/>
<path d="M209.88 279.608C209.949 285.192 205.445 289.754 199.85 289.822L157.818 290.299C152.223 290.367 147.651 285.873 147.583 280.289L143.079 184.816C143.011 179.232 147.515 174.67 153.11 174.602L201.897 173.989C207.492 173.921 212.064 178.415 212.132 183.999L209.88 279.608Z" fill="#34CB79"/>
<path opacity="0.1" d="M211.86 193.601L212.064 184.136C211.996 178.552 207.424 174.057 201.829 174.126L153.042 174.738C147.447 174.806 142.943 179.369 143.012 184.953L143.489 194.419L211.86 193.601Z" fill="#161826"/>
<path d="M220.185 181.752C220.185 183.318 218.957 184.544 217.388 184.612L137.69 185.565C136.121 185.565 134.893 184.34 134.824 182.773L134.688 172.695C134.688 171.129 135.916 169.903 137.486 169.835L217.183 168.882C218.752 168.882 219.98 170.107 220.049 171.674L220.185 181.752Z" fill="#34CB79"/>
<path d="M177.878 209.74L187.158 204.156L184.907 209.945L177.878 209.74Z" fill="white"/>
<path d="M174.4 200.956C174.4 200.956 175.15 200.956 176.31 202.726C177.47 204.497 180.063 209.264 180.063 209.264L184.771 207.153L185.863 205.314C185.863 205.314 183.816 201.228 182.179 200.956H174.4Z" fill="white"/>
<path d="M171.806 202.182C171.806 202.182 173.239 200.615 174.399 201.433C175.559 202.25 177.606 205.655 177.606 205.655L174.262 211.511L168.258 208.174L171.806 202.182Z" fill="white"/>
<path d="M182.11 217.026L182.587 227.785L178.562 223.087L182.11 217.026Z" fill="white"/>
<path d="M191.526 218.116C191.526 218.116 191.185 218.797 189.069 219.001C186.954 219.206 181.495 219.206 181.495 219.206L181.086 224.381L182.178 226.22C182.178 226.22 186.749 226.424 187.773 225.062L191.526 218.116Z" fill="white"/>
<path d="M191.595 215.256C191.595 215.256 192.345 217.231 191.049 217.912C189.82 218.524 185.795 218.661 185.795 218.661L182.178 212.94L187.978 209.195L191.595 215.256Z" fill="white"/>
<path d="M173.92 216.89L164.367 211.851L170.508 210.762L173.92 216.89Z" fill="white"/>
<path d="M168.259 224.449C168.259 224.449 167.849 223.836 168.736 221.929C169.623 220.023 172.353 215.324 172.353 215.324L168.122 212.396L166.007 212.464C166.007 212.464 163.55 216.345 164.164 217.844L168.259 224.449Z" fill="white"/>
<path d="M170.646 225.947C170.646 225.947 168.531 225.538 168.667 224.176C168.736 222.746 170.646 219.273 170.646 219.273L177.401 219.069L177.674 225.947H170.646Z" fill="white"/>
<path d="M31.4492 262.924C31.4492 262.924 29.948 286.963 28.6516 287.439C23.6705 289.142 -13.9264 298.675 21.6235 282.673L20.6682 265.172L31.4492 262.924Z" fill="#051F38"/>
<path d="M29.8805 281.583C30.7676 274.297 31.4499 262.924 31.4499 262.924L20.6689 265.172L21.556 280.766C24.2171 281.515 27.2876 281.583 29.8805 281.583Z" fill="#041523"/>
<path d="M6.54379 291.049C5.45205 293.705 25.1034 288.665 28.6516 287.44C28.7198 287.371 28.8563 287.235 28.9928 286.895C24.5576 288.121 11.1155 291.185 6.54379 291.049Z" fill="white"/>
<path d="M54.4434 261.63C54.4434 261.63 56.4222 285.668 57.7868 286.077C62.8361 287.711 100.57 296.496 64.6785 281.174L65.2926 263.673L54.4434 261.63Z" fill="#051F38"/>
<path d="M56.4222 280.221C55.3986 273.002 54.4434 261.63 54.4434 261.63L65.2926 263.673L64.7467 279.267C62.0856 280.085 59.015 280.153 56.4222 280.221Z" fill="#041523"/>
<path d="M79.9635 289.278C81.1235 291.934 61.3356 287.235 57.7875 286.077C57.651 286.077 57.5828 285.873 57.4463 285.533C61.8815 286.758 75.3918 289.55 79.9635 289.278Z" fill="white"/>
<path d="M61.0624 131.836C61.0624 131.836 70.8881 211.034 68.9093 275.113C68.9093 275.113 57.173 278.382 54.1025 275.999C51.4414 260.813 51.7825 231.259 47.825 209.331C44.0721 188.63 42.571 171.673 42.571 171.673L41.3427 170.311C41.3427 170.311 33.2911 270.415 31.517 278.041C21.3502 280.425 18.1432 277.633 18.1432 277.633C18.1432 277.633 13.5033 152.402 16.3691 132.177C20.0537 105.755 61.0624 131.836 61.0624 131.836Z" fill="#34CB79"/>
<path opacity="0.1" d="M62.835 148.248C61.8115 138.033 60.9927 131.904 60.9927 131.904C60.9927 131.904 20.0523 105.823 16.2994 132.245C15.9582 134.696 15.7535 138.714 15.5488 143.821C18.6194 145.524 56.9669 150.972 62.835 148.248Z" fill="#161826"/>
<path opacity="0.1" d="M41.8208 169.495C42.2984 174.874 44.7549 192.239 47.8254 209.331C51.783 231.327 51.4418 260.813 54.1029 275.999C57.1734 278.382 68.9097 275.114 68.9097 275.114C70.0697 235.685 66.8627 190.537 64.1333 161.663C57.6511 165.749 49.3948 167.724 41.8208 169.495Z" fill="#161826"/>
<path d="M45.3003 62.5814C45.3685 54.2735 45.9826 43.3099 45.9826 43.3099L29.6065 38.8154C29.6065 38.8154 30.1523 53.6607 30.63 62.7176C23.1925 65.2372 14.7314 70.004 14.7314 70.004L45.6414 77.8352L56.6271 67.212C56.6271 67.212 51.1002 64.42 45.3003 62.5814Z" fill="#FFB39F"/>
<path d="M45.3003 62.5814C45.3685 54.2735 45.9826 43.3099 45.9826 43.3099L29.6065 38.8154C29.6065 38.8154 30.1523 53.6607 30.63 62.7176C23.1925 65.2372 14.7314 70.004 14.7314 70.004L45.6414 77.8352L60.2435 65.3053C60.2435 65.3053 51.1684 61.9004 45.3003 62.5814Z" fill="#E09B8D"/>
<path d="M28.1732 23.0853C28.1732 23.0853 32.472 9.19347 43.7988 11.3726C55.1257 13.5517 56.7633 28.3288 58.1962 38.271C59.6291 48.2814 56.4221 57.2702 47.5517 58.3598C39.8412 59.3131 26.3991 57.815 28.1732 23.0853Z" fill="#FFB39F"/>
<path d="M28.7196 34.7301C28.7196 34.7301 28.0373 32.8914 25.2397 34.9343C21.6915 37.522 25.3079 47.0557 29.6067 46.0342C33.9054 45.0128 28.7196 34.7301 28.7196 34.7301Z" fill="#FFB39F"/>
<path d="M24.761 15.1186C25.034 15.0505 30.3562 14.642 26.8081 14.9824C30.0833 18.5235 29.7421 19.4088 34.2456 20.2259C36.6338 27.5805 31.9256 32.0068 31.9256 32.0068L33.2221 40.8594L29.8104 41.1999C29.8104 41.1999 29.8786 35.0712 27.2857 34.5264C24.6928 33.9816 23.9422 37.1141 23.9422 37.1141C18.5518 30.3044 13.093 16.9573 24.761 15.1186Z" fill="#051F38"/>
<path d="M55.6721 10.1465C57.8556 4.76681 54.171 0 54.171 0C54.7851 1.97482 54.5121 3.81345 53.898 5.31159C53.4886 3.81345 52.7381 2.17912 51.3734 0.544778C51.3734 0.544778 51.7828 5.99257 44.3453 5.31159C36.9078 4.63062 23.8751 5.65208 23.3292 17.1605C22.7151 28.669 33.8372 20.293 33.8372 20.293C33.8372 20.293 56.0133 26.4899 59.2203 8.64837L55.6721 10.1465Z" fill="#051F38"/>
<path d="M45.1646 30.0318C45.1646 30.0318 44.9599 30.0318 44.6869 29.9637C44.3458 29.8956 43.9364 29.8275 43.4587 29.7594C43.1858 29.6913 42.9811 29.6913 42.7081 29.6913C42.4352 29.6232 42.1623 29.6232 41.8893 29.6232C41.6164 29.6232 41.3435 29.6232 41.0023 29.6232C40.8658 29.6232 40.7294 29.6232 40.5929 29.6232L40.1835 29.6913C39.9105 29.6913 39.6376 29.7594 39.2964 29.8275C39.0235 29.8956 38.7506 29.9637 38.4776 30.0318C38.2047 30.0999 37.9318 30.2361 37.6588 30.3042C37.3859 30.3723 37.1812 30.5085 36.9083 30.5766C36.7035 30.6447 36.4306 30.7128 36.2941 30.849C36.0894 30.9171 35.953 30.9852 35.8165 31.0533C35.5436 31.1895 35.3389 31.2576 35.3389 31.2576C35.3389 31.2576 35.4071 31.0533 35.5436 30.7809C35.6118 30.6447 35.68 30.4404 35.8165 30.2361C35.953 30.0318 36.0894 29.8275 36.2941 29.6232C36.4988 29.4189 36.6353 29.1465 36.9083 28.9423C37.1812 28.738 37.4541 28.5337 37.7953 28.3294C38.1365 28.1932 38.4776 27.9889 38.8188 27.8527C39.2282 27.7165 39.5694 27.6484 39.9788 27.5803L40.5929 27.5122C40.7976 27.5122 41.0023 27.5122 41.207 27.5803C41.4117 27.5803 41.6164 27.6484 41.7529 27.6484C41.9576 27.7165 42.094 27.7165 42.2987 27.7846C42.6399 27.9208 42.9811 27.9889 43.254 28.1932C43.527 28.3294 43.7999 28.5337 44.0728 28.6699C44.2775 28.8061 44.4822 29.0104 44.6869 29.1465C44.8234 29.2827 44.9599 29.487 45.0963 29.5551C45.0281 29.8275 45.1646 30.0318 45.1646 30.0318Z" fill="#051F38"/>
<path d="M56.6952 29.6906C56.6952 29.6906 56.5587 29.6225 56.2858 29.5544C56.0128 29.4863 55.6717 29.3501 55.3305 29.2139C55.1258 29.1458 54.9211 29.0777 54.7164 29.0096C54.5117 28.9415 54.307 28.8734 54.1023 28.8734C53.8976 28.8734 53.6929 28.8053 53.4882 28.7372C53.42 28.7372 53.2835 28.7372 53.2153 28.6691H52.9423C52.7376 28.601 52.5329 28.7372 52.3282 28.6691C52.1235 28.7372 51.9188 28.7372 51.7141 28.8053C51.5094 28.8734 51.3047 28.9415 51.1 29.0096C50.8953 29.0777 50.6906 29.1458 50.5541 29.2139C50.3494 29.282 50.1447 29.3501 50.0083 29.4182C49.8718 29.4863 49.7353 29.5544 49.5989 29.5544C49.3259 29.6225 49.1895 29.6906 49.1895 29.6906C49.1895 29.6906 49.1895 29.5544 49.3259 29.282C49.3942 29.1458 49.3942 29.0096 49.5306 28.8053C49.5989 28.601 49.7353 28.4648 49.8718 28.2605C50.0083 28.0562 50.1447 27.852 50.3494 27.6477C50.5541 27.4434 50.8271 27.3072 51.0318 27.1029C51.3047 26.9667 51.6459 26.8305 51.9188 26.6943C52.26 26.6262 52.6012 26.5581 52.9423 26.5581C53.147 26.5581 53.2835 26.5581 53.4882 26.5581C53.6929 26.5581 53.8294 26.6262 53.9658 26.6943C54.1023 26.6943 54.307 26.7624 54.4435 26.8305C54.5799 26.8986 54.7164 26.9667 54.8529 27.0348C55.3987 27.3753 55.8082 27.7158 56.0811 28.1243C56.354 28.5329 56.4905 28.8734 56.627 29.1458C56.6952 29.5544 56.6952 29.6906 56.6952 29.6906Z" fill="#051F38"/>
<path d="M48.3032 30.4397C48.7126 31.325 49.122 32.2783 49.5314 33.1636C49.7361 33.6403 49.8726 34.0489 50.0773 34.5255L50.6232 35.8875L51.169 37.2494C51.3737 37.7261 51.5102 38.1347 51.7149 38.6114L51.9879 39.2924C52.0561 39.4966 52.1926 39.769 52.2608 39.9733C52.4655 40.3819 52.6702 40.7905 52.8749 41.2672L53.0796 41.812L52.6702 42.0162C52.0561 42.2886 51.442 42.6291 50.7597 42.9015C50.1455 43.1739 49.4632 43.4463 48.7809 43.6506C49.3267 43.1739 49.8726 42.7653 50.4185 42.3567C50.9644 41.9481 51.5785 41.5396 52.1243 41.131L51.9196 41.88C51.6467 41.4715 51.3738 40.9948 51.1008 40.5862C50.8279 40.1776 50.6232 39.7009 50.4185 39.2243L50.0773 38.5433L49.8044 37.8623C49.6679 37.3856 49.4632 36.9089 49.3267 36.4323L48.9173 35.0022C48.7809 34.5255 48.7126 34.0489 48.5762 33.5722C48.5079 32.4826 48.3715 31.4612 48.3032 30.4397Z" fill="#DD9078"/>
<path d="M28.5141 44.059C28.2412 43.9228 27.9682 43.7185 27.7635 43.4461C27.5588 43.2418 27.2859 42.9694 27.1494 42.6289C27.0812 42.4927 27.013 42.2884 27.013 42.0841C27.013 42.016 27.013 41.8798 27.013 41.8117C27.013 41.7437 27.0812 41.6075 27.0812 41.5394C27.1494 41.3351 27.2859 41.1989 27.4224 41.0627C27.4906 40.9946 27.5588 40.9265 27.6271 40.8584L27.8318 40.7222L27.6953 40.9265C27.6953 40.1774 27.6953 39.4283 27.6271 38.7474C27.5588 37.9983 27.4906 37.2492 27.2177 36.6364C27.1494 36.5002 27.0812 36.364 26.9447 36.2959C26.8765 36.2278 26.74 36.1597 26.6036 36.1597C26.5353 36.1597 26.4671 36.1597 26.3989 36.2278C26.3306 36.2278 26.1942 36.2959 26.1259 36.2959C25.9895 36.364 25.853 36.4321 25.7165 36.5683C25.5801 36.7045 25.4436 36.7725 25.3754 36.9087C25.3071 37.0449 25.1707 37.1811 25.1024 37.3854C24.966 37.7259 24.8977 38.0664 24.8977 38.475C24.7613 38.1345 24.7613 37.7259 24.8295 37.3173C24.8295 37.113 24.8977 36.9087 25.0342 36.7725C25.1024 36.5683 25.2389 36.4321 25.3754 36.2959L25.5801 36.0916L25.853 35.8873C25.9212 35.8192 26.0577 35.8192 26.1259 35.7511C26.1942 35.683 26.3306 35.683 26.4671 35.6149C26.74 35.5468 27.013 35.6149 27.2177 35.8192C27.4224 35.9554 27.5588 36.1597 27.6271 36.364C27.8318 36.7725 27.9 37.113 28.0365 37.5216C28.1047 37.9302 28.1729 38.2707 28.1729 38.6793C28.2412 39.4283 28.2412 40.1774 28.1729 40.9946V41.1308L28.0365 41.1989C27.9 41.267 27.7635 41.3351 27.6953 41.4713C27.6271 41.5394 27.4906 41.6756 27.4224 41.7437C27.3541 41.8118 27.3541 41.8799 27.3541 41.9479C27.3541 42.016 27.2859 42.0841 27.2859 42.1522C27.2859 42.2884 27.2859 42.4246 27.2859 42.5608C27.3541 42.8332 27.4906 43.1056 27.6953 43.378C28.1047 43.6504 28.3094 43.8547 28.5141 44.059Z" fill="#DD9078"/>
<path d="M39.228 36.5C39.228 36.5 39.2963 36.6362 39.3645 36.9086C39.4327 37.0448 39.4327 37.181 39.501 37.3172C39.5692 37.4534 39.6374 37.6576 39.7739 37.8619C39.8421 38.0662 40.0468 38.2024 40.1151 38.4067C40.1833 38.4748 40.2515 38.5429 40.388 38.6791C40.4562 38.7472 40.5245 38.8153 40.6609 38.8834C40.8656 39.0196 41.0703 39.0877 41.275 39.1558C41.4115 39.1558 41.4797 39.2239 41.6162 39.2239C41.7527 39.2239 41.8209 39.2239 41.9574 39.1558L42.2986 39.0196L42.6397 38.8153C42.8444 38.6791 42.9809 38.4748 43.1174 38.2705C43.2538 38.0662 43.3221 37.8619 43.4585 37.6576C43.5268 37.4534 43.595 37.2491 43.595 36.9767C43.595 36.7724 43.595 36.5681 43.6632 36.4319C43.6632 36.2276 43.6632 36.0914 43.6632 35.9552C43.6632 35.6828 43.6632 35.5466 43.6632 35.5466C43.6632 35.5466 43.7315 35.6828 43.7997 35.9552C43.8679 36.0914 43.8679 36.2276 43.9362 36.4319C43.9362 36.6362 44.0044 36.8405 44.0044 37.0448C44.0044 37.2491 44.0044 37.5215 43.9362 37.7938C43.8679 38.0662 43.7997 38.3386 43.6632 38.611C43.5268 38.8834 43.3221 39.1558 43.0491 39.3601L42.6397 39.6325C42.5033 39.7006 42.2986 39.7687 42.1621 39.8368C42.0256 39.8368 41.8209 39.9049 41.6162 39.9049C41.4797 39.9049 41.275 39.8368 41.1386 39.8368C40.7974 39.7687 40.5245 39.5644 40.2515 39.3601C39.9786 39.1558 39.8421 38.8834 39.7057 38.6791C39.5692 38.4067 39.4327 38.2024 39.3645 37.9981C39.2963 37.7938 39.228 37.5895 39.228 37.3853C39.228 37.181 39.228 37.0448 39.228 36.9086C39.228 36.6362 39.228 36.5 39.228 36.5Z" fill="#1F2733"/>
<path d="M51.5786 34.4575C51.5786 34.4575 51.6468 34.5937 51.7151 34.8661C51.7833 35.0023 51.7833 35.1385 51.8515 35.2747C51.9198 35.4109 51.988 35.6152 52.1245 35.8195C52.1927 36.0238 52.3974 36.1599 52.4657 36.3642C52.5339 36.4323 52.6021 36.5004 52.7386 36.6366C52.8068 36.7047 52.8751 36.7728 53.0115 36.8409C53.2162 36.9771 53.4209 37.0452 53.6256 37.1133C53.7621 37.1133 53.8303 37.1814 53.9668 37.1814C54.1033 37.1814 54.1715 37.1814 54.308 37.1133L54.6491 36.9771L54.9903 36.7728C55.195 36.6366 55.3315 36.4323 55.4679 36.228C55.6044 36.0238 55.6727 35.8195 55.8091 35.6152C55.8774 35.4109 55.9456 35.2066 55.9456 34.9342C55.9456 34.7299 55.9456 34.5256 56.0138 34.3894C56.0138 34.1851 56.0138 34.0489 56.0138 33.9127C56.0138 33.6403 56.0138 33.5042 56.0138 33.5042C56.0138 33.5042 56.0821 33.6403 56.1503 33.9127C56.2185 34.0489 56.2185 34.1851 56.2868 34.3894C56.2868 34.5937 56.355 34.798 56.355 35.0023C56.355 35.2066 56.355 35.479 56.2868 35.7514C56.2185 36.0237 56.1503 36.2961 56.0138 36.5685C55.8774 36.8409 55.6727 37.1133 55.3997 37.3176L54.9903 37.59C54.8538 37.6581 54.6491 37.7262 54.5127 37.7943C54.3762 37.7943 54.1715 37.8624 53.9668 37.8624C53.8303 37.8624 53.6256 37.7943 53.4892 37.7943C53.148 37.7262 52.8751 37.5219 52.6021 37.3176C52.3292 37.1133 52.1927 36.8409 52.0562 36.6366C51.9198 36.3642 51.7833 36.1599 51.7151 35.9557C51.6468 35.7514 51.5786 35.5471 51.5786 35.3428C51.5786 35.1385 51.5786 35.0023 51.5786 34.8661C51.5786 34.5937 51.5786 34.4575 51.5786 34.4575Z" fill="#1F2733"/>
<path d="M40.3008 46.1289C40.3008 46.1289 40.2325 46.1289 40.3008 46.197C40.369 46.2651 40.5055 46.3332 40.6419 46.4013C40.9149 46.6056 41.3925 46.8099 41.9384 47.0822C42.4842 47.3546 43.1666 47.627 43.8489 47.8313C44.1901 47.9675 44.5995 48.0356 44.9407 48.1037C45.2818 48.1718 45.6912 48.2399 46.1006 48.308C46.8512 48.3761 47.6018 48.4442 48.3524 48.3761C49.1029 48.308 49.717 48.1718 50.3312 47.9675C50.877 47.7632 51.3547 47.627 51.6958 47.4908C52.037 47.3546 52.2417 47.2865 52.2417 47.2865C52.2417 47.2865 52.1052 47.4908 51.8323 47.6951C51.5594 47.9675 51.15 48.308 50.6041 48.6485C50.0582 48.989 49.3076 49.3295 48.4888 49.4657C47.67 49.6699 46.783 49.6699 45.8959 49.6018C45.4865 49.5338 45.0089 49.4657 44.5995 49.3295C44.1901 49.1933 43.7807 49.0571 43.4395 48.8528C42.6889 48.5123 42.0748 48.1037 41.5972 47.6951C41.1196 47.2865 40.7102 46.878 40.5055 46.5375C40.369 46.4013 40.3008 46.2651 40.3008 46.1289C40.2325 46.197 40.2325 46.1289 40.3008 46.1289Z" fill="#DD9078"/>
<path d="M50.9644 62.3775C50.9644 62.3775 68.4322 60.5389 70.684 73.886C72.9357 87.3012 72.731 90.9103 72.731 90.9103L55.6725 88.3907L50.9644 62.3775Z" fill="#8257E6"/>
<path d="M65.7021 73.1363C64.6786 64.6242 56.0129 62.7855 50.9636 62.377C48.7119 65.5094 45.5731 67.7566 41.2744 67.8928C36.3615 68.029 31.8581 66.3266 29.4699 62.5812C21.8277 63.4665 14.2537 65.6456 12.5478 70.821C8.93145 81.7166 12.0702 141.642 12.0702 141.642C12.0702 141.642 42.639 146.886 67.7491 142.119C67.6809 142.187 67.0668 84.5086 65.7021 73.1363Z" fill="#8257E6"/>
<path opacity="0.2" d="M10.7749 99.9671C10.9114 119.715 12.0713 141.711 12.0713 141.711C12.0713 141.711 42.6402 146.954 67.7503 142.187C67.7503 142.187 67.2726 98.4008 66.2491 79.606C47.7577 86.4838 29.2663 93.2935 10.7749 99.9671Z" fill="#352C38"/>
<path d="M29.6061 115.766C29.6061 115.766 28.9238 113.791 32.0625 112.497C35.2013 111.203 67.5442 102.759 69.5912 103.031C71.6382 103.304 96.6801 106.3 97.0895 107.662C97.4989 109.024 67.1348 118.83 67.1348 118.83L29.6061 115.766Z" fill="#E1EDFF"/>
<path d="M68.8417 121.418C68.8417 121.418 33.4283 121.282 30.6989 118.081C27.9695 114.881 27.9013 112.565 43.3904 115.289C58.8795 118.013 67.8182 117.605 67.8182 117.605C67.8182 117.605 96.2035 104.394 97.1588 107.594C98.0458 110.863 101.048 110.046 68.8417 121.418Z" fill="#C0D5FF"/>
<path d="M97.0896 107.662C96.2026 104.462 67.749 117.672 67.749 117.672C67.749 117.672 67.6808 117.672 67.4761 117.672C68.0902 118.898 68.5678 120.056 69.1137 121.35C101.047 110.046 98.0449 110.863 97.0896 107.662Z" fill="#B1C5E8"/>
<path d="M28.5822 108.479C28.5822 108.479 27.8998 106.504 31.0386 105.21C34.1774 103.917 66.5203 95.4726 68.5673 95.745C70.6143 96.0174 95.6562 99.0136 96.0656 100.376C96.475 101.738 66.1109 111.544 66.1109 111.544L28.5822 108.479Z" fill="#E1EDFF"/>
<path d="M67.8173 114.199C67.8173 114.199 32.4038 114.063 29.6745 110.863C26.9451 107.662 26.8769 105.347 42.366 108.071C57.8551 110.794 66.7938 110.386 66.7938 110.386C66.7938 110.386 95.1791 97.1749 96.1344 100.376C96.9532 103.576 100.024 102.759 67.8173 114.199Z" fill="#C0D5FF"/>
<path d="M96.0657 100.444C95.1786 97.2431 66.7251 110.454 66.7251 110.454C66.7251 110.454 66.6569 110.454 66.4521 110.454C67.0663 111.68 67.5439 112.837 68.0898 114.131C99.955 102.759 96.9527 103.576 96.0657 100.444Z" fill="#B1C5E8"/>
<path d="M28.4468 102.555C28.4468 102.555 27.8327 100.852 30.835 99.6948C33.8373 98.5372 65.1567 91.1146 67.1355 91.3869C69.1142 91.6593 93.3373 94.3151 93.7467 95.4728C94.1561 96.6304 64.7473 105.347 64.7473 105.347L28.4468 102.555Z" fill="#E1EDFF"/>
<path d="M66.3837 107.594C66.3837 107.594 32.1302 107.458 29.4691 104.666C26.808 101.874 26.808 99.8309 41.7512 102.214C56.6945 104.598 65.3602 104.257 65.3602 104.257C65.3602 104.257 92.8585 92.6125 93.7455 95.4726C94.6326 98.2646 97.5666 97.5156 66.3837 107.594Z" fill="#C0D5FF"/>
<path d="M93.7462 95.4731C92.8591 92.6811 65.3608 104.258 65.3608 104.258C65.3608 104.258 65.2926 104.258 65.0879 104.258C65.6338 105.279 66.1796 106.369 66.6573 107.458C97.5673 97.516 94.6332 98.2651 93.7462 95.4731Z" fill="#B1C5E8"/>
<path d="M29.4018 94.5872C29.4018 94.5872 28.8559 92.8848 31.9265 91.7952C34.997 90.7738 66.5211 84.5088 68.4999 84.8493C70.4787 85.1217 94.5653 88.7309 94.9064 89.8885C95.2476 91.0462 65.5658 98.605 65.5658 98.605L29.4018 94.5872Z" fill="white"/>
<path d="M67.1356 101.056C67.1356 101.056 32.8821 99.6261 30.3574 96.766C27.8328 93.8378 27.8328 91.863 42.7078 94.7911C57.5828 97.7193 66.2485 97.7193 66.2485 97.7193C66.2485 97.7193 94.1562 87.1642 94.9068 89.9562C95.7256 92.7482 98.6597 92.1353 67.1356 101.056Z" fill="#C0D5FF"/>
<path d="M94.9063 89.9564C94.1557 87.0963 66.248 97.7195 66.248 97.7195C66.248 97.7195 66.1798 97.7195 65.9751 97.7195C66.521 98.8091 66.9986 99.8986 67.408 100.988C98.5909 92.1355 95.6569 92.7484 94.9063 89.9564Z" fill="#B1C5E8"/>
<path d="M11.5933 95.8813L28.4471 91.7954C28.4471 91.7954 32.0635 116.31 33.0187 117.672C33.974 119.034 62.1546 120.396 62.1546 120.396L70.3427 120.873C70.3427 120.873 35.7481 135.378 25.7859 129.521C15.6873 123.529 11.5933 95.8813 11.5933 95.8813Z" fill="#FFB39F"/>
<path d="M13.2309 98.8094C18.4167 97.2432 23.466 95.3365 28.7882 94.1788C28.5835 92.6807 28.4471 91.7954 28.4471 91.7954L11.5933 95.8813C11.5933 95.8813 11.798 97.107 12.1391 99.1499C12.5485 99.0137 12.8897 98.8775 13.2309 98.8094Z" fill="#E09B8D"/>
<path d="M67.2033 123.12C67.2033 123.12 80.0313 119.715 80.0313 117.128C80.0313 114.54 75.3914 105.211 78.6666 117.673C78.6666 117.673 71.8432 100.784 77.3019 118.49C77.3019 118.49 71.9797 104.734 75.5961 118.83C75.5961 118.83 70.1374 109.297 74.0949 119.511L69.1821 121.35L57.3776 121.214L51.1001 127.342L67.2033 123.12Z" fill="#FFB39F"/>
<path d="M97.2255 110.659C97.2255 110.659 90.4021 93.7707 95.8608 111.476C95.8608 111.476 90.5386 97.7204 94.155 111.817C94.155 111.817 88.6963 102.283 92.1762 112.566L88.4233 114.336C89.788 114.472 91.5621 114.404 92.995 113.928C97.362 113.042 98.5902 111.544 98.5902 110.182C98.5902 107.594 93.9503 98.2651 97.2255 110.659Z" fill="#FFB39F"/>
<path d="M114.625 289.891C114.625 292.342 112.646 294.385 110.19 294.453C107.734 294.453 105.687 292.478 105.618 290.027L105.414 275.59C105.414 273.139 107.392 271.096 109.849 271.028C112.305 271.028 114.352 273.002 114.42 275.454L114.625 289.891Z" fill="#091E1D"/>
<path d="M51.7824 290.64C51.7824 293.091 49.8036 295.134 47.3472 295.202C44.8908 295.202 42.8437 293.228 42.7755 290.776L42.5708 276.339C42.5708 273.888 44.5496 271.845 47.006 271.777C49.4624 271.777 51.5095 273.752 51.5777 276.203L51.7824 290.64Z" fill="#091E1D"/>
<path d="M109.577 279.608C109.645 285.192 105.142 289.754 99.5464 289.822L57.5142 290.299C51.919 290.367 47.3473 285.873 47.2791 280.289L42.7757 184.816C42.7074 179.232 47.2109 174.67 52.8061 174.602L101.593 173.989C107.189 173.921 111.76 178.415 111.828 183.999L109.577 279.608Z" fill="#322153"/>
<path d="M111.555 193.601L111.76 184.136C111.692 178.552 107.12 174.057 101.525 174.126L52.7377 174.738C47.1425 174.806 42.6391 179.369 42.7073 184.953L43.1849 194.419L111.555 193.601Z" fill="#1C0C3B"/>
<path d="M119.88 181.752C119.88 183.318 118.652 184.544 117.083 184.612L37.3856 185.565C35.8162 185.565 34.588 184.34 34.5198 182.773L34.3833 172.695C34.3833 171.129 35.6115 169.903 37.1809 169.835L116.878 168.882C118.448 168.882 119.676 170.107 119.744 171.674L119.88 181.752Z" fill="#322153"/>
<path d="M77.5752 209.74L86.855 204.156L84.6033 209.945L77.5752 209.74Z" fill="white"/>
<path d="M74.0962 200.956C74.0962 200.956 74.8468 200.956 76.0067 202.726C77.1667 204.497 79.7596 209.264 79.7596 209.264L84.4678 207.153L85.5595 205.314C85.5595 205.314 83.5125 201.228 81.8749 200.956H74.0962Z" fill="white"/>
<path d="M71.5023 202.182C71.5023 202.182 72.9352 200.615 74.0952 201.433C75.2551 202.25 77.3022 205.655 77.3022 205.655L73.9587 211.511L67.9541 208.174L71.5023 202.182Z" fill="white"/>
<path d="M81.8055 217.026L82.2831 227.785L78.2573 223.087L81.8055 217.026Z" fill="white"/>
<path d="M91.223 218.116C91.223 218.116 90.8818 218.797 88.7666 219.001C86.6513 219.206 81.1926 219.206 81.1926 219.206L80.7832 224.381L81.8749 226.22C81.8749 226.22 86.4466 226.424 87.4701 225.062L91.223 218.116Z" fill="white"/>
<path d="M91.2908 215.256C91.2908 215.256 92.0414 217.231 90.7449 217.912C89.5167 218.524 85.4909 218.661 85.4909 218.661L81.8745 212.94L87.6744 209.195L91.2908 215.256Z" fill="white"/>
<path d="M73.6865 216.89L64.1338 211.851L70.2066 210.762L73.6865 216.89Z" fill="white"/>
<path d="M67.9548 224.449C67.9548 224.449 67.5454 223.836 68.4324 221.93C69.3195 220.023 72.0488 215.324 72.0488 215.324L67.8183 212.396L65.7031 212.464C65.7031 212.464 63.2467 216.346 63.8608 217.844L67.9548 224.449Z" fill="white"/>
<path d="M70.4109 225.947C70.4109 225.947 68.2956 225.538 68.4321 224.176C68.5003 222.746 70.4109 219.273 70.4109 219.273L77.1661 219.069L77.439 225.947H70.4109Z" fill="white"/>
</svg>
